<svg width="18" height="18" viewBox="0 0 18 18" fill="none" xmlns="http://www.w3.org/2000/svg">
<g id="instagram" clip-path="url(#clip0_0_287)">
<path id="Vector" d="M5.72627 0.954248C4.8419 0.995973 4.23798 1.13711 3.71002 1.34457C3.16361 1.55751 2.70048 1.84327 2.23968 2.30573C1.77888 2.76819 1.49512 3.23165 1.28367 3.77889C1.07904 4.30801 0.940396 4.91244 0.901331 5.7973C0.862267 6.68217 0.853622 6.96659 0.857944 9.22371C0.862267 11.4808 0.872241 11.7638 0.915129 12.6505C0.957352 13.5347 1.09799 14.1384 1.30545 14.6665C1.51872 15.213 1.80415 15.6759 2.26678 16.1369C2.7294 16.5978 3.19253 16.8809 3.7411 17.0927C4.26973 17.297 4.87432 17.4363 5.75902 17.4751C6.64371 17.5138 6.92847 17.5228 9.18493 17.5184C11.4414 17.5141 11.7255 17.5042 12.612 17.4621C13.4985 17.42 14.0991 17.2784 14.6274 17.0719C15.1738 16.8582 15.6371 16.5732 16.0978 16.1104C16.5584 15.6477 16.842 15.1839 17.0533 14.6363C17.2581 14.1077 17.3972 13.5031 17.4356 12.619C17.4743 11.7318 17.4835 11.4486 17.4792 9.1918C17.4748 6.93501 17.4647 6.65208 17.4226 5.76572C17.3806 4.87936 17.2398 4.27743 17.0325 3.74897C16.8189 3.20256 16.5338 2.73993 16.0713 2.27863C15.6089 1.81733 15.1447 1.53391 14.5973 1.32312C14.0684 1.11849 13.4641 0.979017 12.5794 0.940783C11.6947 0.902549 11.41 0.892742 9.15268 0.897064C6.89539 0.901386 6.61279 0.911027 5.72627 0.954248ZM5.82335 15.9798C5.01296 15.9445 4.57294 15.8099 4.2797 15.6972C3.89138 15.5476 3.61477 15.3667 3.32253 15.0773C3.03029 14.7879 2.85075 14.5103 2.69915 14.1228C2.58528 13.8296 2.44814 13.39 2.41024 12.5796C2.36901 11.7038 2.36037 11.4408 2.35554 9.22172C2.35072 7.00266 2.3592 6.74002 2.3976 5.8638C2.43218 5.05407 2.56766 4.61355 2.6802 4.32048C2.82981 3.93166 3.01001 3.65555 3.30008 3.36347C3.59016 3.0714 3.86694 2.89154 4.25477 2.73993C4.54767 2.62556 4.98719 2.48958 5.79725 2.45102C6.6738 2.40946 6.93645 2.40115 9.15517 2.39633C11.3739 2.39151 11.6372 2.39982 12.5141 2.43838C13.3238 2.47362 13.7645 2.60778 14.0572 2.72098C14.4457 2.87059 14.7222 3.05029 15.0142 3.34087C15.3063 3.63144 15.4863 3.90723 15.638 4.29588C15.7525 4.58795 15.8885 5.02731 15.9267 5.83786C15.9684 6.71442 15.9779 6.97723 15.9819 9.19579C15.9859 11.4143 15.9781 11.6778 15.9397 12.5537C15.9043 13.3641 15.7699 13.8043 15.6571 14.0979C15.5075 14.486 15.3271 14.7628 15.0369 15.0547C14.7466 15.3466 14.4702 15.5265 14.0822 15.6781C13.7896 15.7923 13.3496 15.9286 12.5402 15.9672C11.6636 16.0084 11.401 16.017 9.18143 16.0218C6.96188 16.0267 6.70006 16.0177 5.82351 15.9798M12.5992 4.76549C12.5995 4.96277 12.6584 5.15552 12.7682 5.31937C12.8781 5.48322 13.0341 5.6108 13.2165 5.68597C13.3989 5.76115 13.5995 5.78055 13.7929 5.74171C13.9864 5.70288 14.1639 5.60756 14.3032 5.4678C14.4424 5.32805 14.5371 5.15014 14.5752 4.95657C14.6133 4.76301 14.5932 4.56249 14.5173 4.38037C14.4415 4.19825 14.3134 4.04272 14.1491 3.93343C13.9849 3.82415 13.7919 3.76603 13.5946 3.76643C13.3301 3.76695 13.0767 3.8725 12.89 4.05985C12.7034 4.2472 12.5988 4.50102 12.5992 4.76549ZM4.90092 9.21607C4.90557 11.5733 6.81992 13.4798 9.17661 13.4753C11.5333 13.4708 13.4412 11.5566 13.4367 9.19944C13.4322 6.84225 11.5174 4.93521 9.16032 4.93987C6.8033 4.94452 4.89643 6.8592 4.90092 9.21607ZM6.39802 9.21307C6.39693 8.6651 6.55837 8.12911 6.8619 7.67288C7.16544 7.21666 7.59745 6.86068 8.1033 6.64998C8.60914 6.43928 9.16611 6.38331 9.70377 6.48915C10.2414 6.59499 10.7356 6.85789 11.1239 7.2446C11.5121 7.63131 11.777 8.12446 11.8849 8.66169C11.9929 9.19893 11.9391 9.75611 11.7304 10.2628C11.5217 10.7695 11.1675 11.2029 10.7125 11.5082C10.2574 11.8136 9.7221 11.9771 9.17412 11.9782C8.81027 11.979 8.44982 11.9081 8.11338 11.7695C7.77694 11.6309 7.47109 11.4275 7.21329 11.1707C6.9555 10.9139 6.75081 10.6089 6.61093 10.273C6.47104 9.93709 6.39869 9.57693 6.39802 9.21307Z" fill="#111D15"/>
</g>
<defs>
<clipPath id="clip0_0_287">
<rect width="16.6234" height="16.6234" fill="white" transform="translate(0.856934 0.896118)"/>
</clipPath>
</defs>
</svg>
