<svg width="19" height="18" viewBox="0 0 19 18" fill="none" xmlns="http://www.w3.org/2000/svg">
<g id="Group icon">
<g id="Group">
<path id="Vector" fill-rule="evenodd" clip-rule="evenodd" d="M10.1881 5.44923V7.32989C10.582 6.72998 11.1248 6.2426 11.7635 5.91547C12.4023 5.58833 13.115 5.43264 13.832 5.46364C17.6609 5.46364 18.4887 7.8574 18.4887 10.9715V17.3117H14.9424V11.6908C14.9424 10.3498 14.672 8.6254 12.5841 8.6254C10.5594 8.6254 10.2136 10.0849 10.2136 11.591V17.3117H6.67837V5.44923H10.1881ZM4.30345 2.4681C4.30301 2.81941 4.19888 3.16278 4.00409 3.45515C3.80931 3.74752 3.53256 3.97588 3.20852 4.1116C2.88462 4.24623 2.52798 4.28145 2.18401 4.21277C1.84003 4.14409 1.52426 3.97463 1.27689 3.72594C1.02905 3.4771 0.86032 3.16053 0.791917 2.81605C0.723515 2.47157 0.758494 2.11455 0.892454 1.7899C1.02641 1.46524 1.25337 1.18745 1.5448 0.991436C1.83622 0.795427 2.17909 0.689958 2.53029 0.688293C2.7637 0.688292 2.99482 0.734375 3.21039 0.8239C3.42595 0.913426 3.62172 1.04463 3.78646 1.20999C3.9512 1.37535 4.08167 1.5716 4.17039 1.7875C4.2591 2.0034 4.30432 2.23469 4.30345 2.4681Z" fill="#111D15"/>
<path id="Vector_2" d="M4.30413 5.46344H0.757812V17.3115H4.30413V5.46344Z" fill="#111D15"/>
</g>
</g>
</svg>
