<svg width="9" height="7" viewBox="0 0 9 7" fill="none" xmlns="http://www.w3.org/2000/svg">
<path id="Vector" d="M2.52209 5.70922L2.52291 5.70829L0.299605 3.2162C0.224549 3.12922 0.182975 3.01267 0.183836 2.89167C0.184697 2.77066 0.227924 2.65488 0.304208 2.56925C0.380492 2.48362 0.483728 2.43501 0.591681 2.43387C0.699633 2.43273 0.803666 2.47917 0.88137 2.56318L3.10468 5.05573L7.47183 0.161535C7.50981 0.117457 7.55524 0.0822995 7.60547 0.0581128C7.65571 0.0339261 7.70973 0.0211951 7.7644 0.0206626C7.81907 0.0201301 7.87328 0.0318067 7.92388 0.0550113C7.97448 0.0782159 8.02045 0.112484 8.05911 0.155815C8.09777 0.199146 8.12834 0.250673 8.14904 0.30739C8.16974 0.364107 8.18016 0.424877 8.17969 0.486154C8.17921 0.547432 8.16785 0.60799 8.14627 0.664295C8.1247 0.720599 8.09333 0.771523 8.05401 0.814095L3.39535 6.03549C3.31815 6.12201 3.21344 6.17062 3.10427 6.17062C2.99509 6.17062 2.89039 6.12201 2.81318 6.03549L2.52209 5.70922Z" fill="white"/>
</svg>
